<svg width="33" height="33" viewBox="0 0 33 33" fill="none" xmlns="http://www.w3.org/2000/svg">
<circle cx="16.5" cy="16.5" r="16.5" fill="#290F43"/>
<path d="M22.0018 15.003V17.003C24.2063 17.003 26.0003 18.797 26.0003 21.0014C26.0003 23.2059 24.2063 24.9999 22.0018 24.9999C19.7974 24.9999 18.0033 23.2059 18.0033 21.0014H16.0034C16.0034 24.3089 18.6943 27.0001 22.0021 27.0001C25.3099 27.0001 28.0008 24.3092 28.0008 21.0014C28.0008 17.6937 25.3093 15.003 22.0018 15.003Z" fill="#FF4ECD"/>
<path d="M14.0117 19.0015V20.0015H21.0117V13.0015H20.0115C16.7029 13.0015 14.0117 15.6929 14.0117 19.0015ZM19.0115 15.128V18.0016H16.138C16.5008 16.5977 17.6077 15.4909 19.0115 15.128Z" fill="#FF4ECD"/>
<path d="M6.00988 23.5001C6.00988 22.6741 6.68227 22.0017 7.50887 22.0017H13.0009V20.0018H10.5137C9.68762 20.0018 9.01523 19.3294 9.01523 18.5033C9.01523 17.6773 9.68762 17.0049 10.5137 17.0049H13.0137V15.005H7.50504C6.67844 15.005 6.00605 14.3326 6.00605 13.5065C6.00605 12.6799 6.67844 12.0075 7.50504 12.0075H21.5152C23.4448 12.0075 25.0152 10.4372 25.0152 8.50754C25.0152 6.57789 23.4448 5.00754 21.5152 5.00754H10.5153C8.58566 5.00754 7.01531 6.57789 7.01531 8.50754C7.01531 9.05168 7.15094 9.56082 7.37352 10.0207C5.50621 10.0916 4.00586 11.6223 4.00586 13.5065C4.00586 15.3905 5.50594 16.9204 7.3727 16.9918C7.15039 17.4511 7.01504 17.96 7.01504 18.5036C7.01504 19.0475 7.15039 19.5563 7.3727 20.016C5.50758 20.089 4.00941 21.618 4.00941 23.5007C4.00941 25.4298 5.57922 26.9993 7.50832 26.9993H16.0161V24.9994H7.50887C6.68227 24.9986 6.00988 24.3262 6.00988 23.5001ZM10.5153 7.00691H21.5152C22.3423 7.00691 23.0152 7.67984 23.0152 8.50699C23.0152 9.33414 22.3423 10.0071 21.5152 10.0071H10.5153C9.68816 10.0071 9.01523 9.33414 9.01523 8.50699C9.01523 7.67984 9.68816 7.00691 10.5153 7.00691Z" fill="#FF4ECD"/>
</svg>
