<svg width="33" height="33" viewBox="0 0 33 33" fill="none" xmlns="http://www.w3.org/2000/svg">
<circle cx="16.5" cy="16.5" r="16.5" fill="#290F43"/>
<path d="M16.4996 16.5219H28C28.0031 18.0313 27.7076 19.5264 27.1305 20.9211C26.5534 22.3158 25.7062 23.5826 24.6375 24.6486L16.4996 16.5219ZM16.4996 16.5219V5C14.6081 5.00014 12.7458 5.46681 11.0777 6.35867C9.40968 7.25053 7.98737 8.54004 6.93683 10.1129C5.88629 11.6859 5.23994 13.4936 5.05507 15.376C4.87019 17.2584 5.15249 19.1573 5.87695 20.9045C6.60141 22.6518 7.74566 24.1933 9.20833 25.3927C10.671 26.592 12.4069 27.412 14.2623 27.7801C16.1176 28.1482 18.0351 28.053 19.8449 27.503C21.6547 26.9529 23.3008 25.965 24.6375 24.6267" stroke="#FF4ECD" stroke-width="2" stroke-miterlimit="10"/>
<path d="M21 12H24.4974C24.8945 12 25.2754 11.8423 25.5562 11.5615C25.837 11.2807 25.9948 10.8999 25.9948 10.5028C25.9948 10.1057 25.837 9.72484 25.5562 9.44406C25.2754 9.16327 24.8945 9.00553 24.4974 9.00553H23.4503C23.0522 9.00276 22.6713 8.8427 22.3908 8.56025C22.1103 8.2778 21.9529 7.89588 21.9529 7.49782C21.9528 7.29763 21.9929 7.09945 22.0707 6.91501C22.1486 6.73058 22.2626 6.56362 22.4062 6.42403C22.5497 6.28444 22.7197 6.17504 22.9063 6.10231C23.0928 6.02958 23.292 5.99499 23.4921 6.00059H27" stroke="#FF4ECD" stroke-width="2" stroke-miterlimit="10"/>
<path d="M24 4V6" stroke="#FF4ECD" stroke-width="2" stroke-miterlimit="10"/>
<path d="M24 12V14" stroke="#FF4ECD" stroke-width="2" stroke-miterlimit="10"/>
</svg>
