<svg width="33" height="33" viewBox="0 0 33 33" fill="none" xmlns="http://www.w3.org/2000/svg">
<circle cx="16.5" cy="16.5" r="16.5" fill="#290F43"/>
<path d="M9.55148 20.5467L11.0901 21.6854C11.1493 22.1445 11.5526 22.5015 12.0475 22.5015C12.583 22.5015 13.0169 22.085 13.0169 21.5714C13.0169 21.5515 13.0121 21.533 13.0108 21.5133L15.2656 18.954C15.4231 18.7846 15.4258 18.5406 15.2724 18.4097C15.1188 18.2785 14.8669 18.31 14.7098 18.4793L12.494 20.7505C12.3599 20.683 12.2094 20.6413 12.0475 20.6413C11.874 20.6413 11.7136 20.6884 11.5729 20.765L10.1241 19.7971C9.93731 19.665 9.65719 19.7262 9.49879 19.9334C9.34085 20.14 9.364 20.4148 9.55148 20.5467Z" fill="#FF4ECD"/>
<path d="M12.0476 14.8095C11.7387 14.8095 11.4883 15.0498 11.4883 15.3462C11.4883 15.6426 11.7387 15.8828 12.0476 15.8828C13.6867 15.883 15.1652 16.5186 16.24 17.549C17.3139 18.5799 17.9764 19.9987 17.9765 21.5714C17.9764 23.1441 17.3139 24.5626 16.24 25.5938C15.1652 26.6242 13.6867 27.2598 12.0476 27.26C10.4085 27.2598 8.92976 26.6241 7.85524 25.5938C6.78137 24.5626 6.11889 23.1441 6.11867 21.5714C6.11889 20.4287 6.47022 19.3675 7.07392 18.477L7.59305 18.8493C7.64921 18.8896 7.72349 18.8996 7.78926 18.8757C7.8548 18.8518 7.90375 18.798 7.91818 18.7317L8.26753 17.1463C8.3298 17.0438 8.35645 16.9259 8.34136 16.8102L8.49933 16.0937C8.51615 16.0183 8.48534 15.9407 8.42131 15.8943C8.35684 15.8484 8.27056 15.8421 8.19975 15.879L5.72797 17.1612C5.66592 17.1937 5.6255 17.2536 5.62049 17.3209C5.61523 17.388 5.64626 17.4534 5.70264 17.4938L6.17544 17.8328C5.43348 18.904 4.99981 20.1901 5 21.5714C5.00044 25.3062 8.15502 28.3329 12.0476 28.3333C15.9402 28.3329 19.0948 25.3062 19.0952 21.5714C19.0948 17.8366 15.9402 14.8099 12.0476 14.8095Z" fill="#FF4ECD"/>
<path d="M26.9999 16.4643V18.7857C26.9999 18.8321 26.9999 18.8321 26.9999 18.8785C26.9999 18.925 26.9999 18.925 26.9535 18.9714C26.9535 19.0178 26.9071 19.0178 26.9071 19.0642C26.9071 19.1107 26.8606 19.1107 26.8606 19.1571C26.8142 19.2035 26.7678 19.25 26.7214 19.2964C26.7214 19.2964 26.6749 19.3428 26.6285 19.3428C26.5821 19.3428 26.5821 19.3892 26.5356 19.3892C26.4892 19.3892 26.4428 19.4357 26.4428 19.4357C26.3964 19.4821 26.3035 19.4821 26.2571 19.5285C26.1642 19.575 26.0714 19.6214 26.0249 19.6214C25.9785 19.6214 25.9321 19.6678 25.8856 19.6678C25.7928 19.7142 25.7464 19.7142 25.6535 19.7607C25.5606 19.8071 25.4214 19.8071 25.3285 19.8535C25.2821 19.8535 25.2356 19.9 25.1892 19.9C25.0964 19.9 25.0499 19.9464 24.9571 19.9464C24.8178 19.9928 24.6785 19.9928 24.4928 20.0392C24.3535 20.0392 24.2142 20.0857 24.0749 20.0857C23.8892 20.1321 23.7035 20.1321 23.4714 20.1321C23.3785 20.1321 23.3321 20.1321 23.2392 20.1321C23.0999 20.1321 22.9606 20.1321 22.8678 20.1321C22.7285 20.1321 22.5428 20.1321 22.4035 20.1321C22.2642 20.1321 22.0785 20.1321 21.9392 20.1321C21.7999 20.1321 21.6607 20.1321 21.5678 20.1321C21.4749 20.1321 21.4285 20.1321 21.3357 20.1321C21.1499 20.1321 20.9178 20.0857 20.7321 20.0857C20.5928 20.0857 20.4535 20.0392 20.3142 20.0392C20.1749 20.0392 19.9892 19.9928 19.8499 19.9464C19.7571 19.9464 19.7107 19.9 19.6178 19.9C19.5714 19.9 19.5249 19.9 19.4785 19.8535C19.3392 19.8071 19.2464 19.8071 19.1535 19.7607C19.0607 19.7607 19.0142 19.7142 18.9214 19.6678C18.8749 19.6678 18.8285 19.6214 18.7821 19.6214C18.6892 19.575 18.5964 19.575 18.5499 19.5285C18.5035 19.4821 18.4107 19.4821 18.3642 19.4357C18.2714 19.3892 18.2249 19.3428 18.1785 19.2964C18.1321 19.2964 18.1321 19.25 18.0857 19.25C18.0392 19.2035 17.9928 19.1571 17.9464 19.1107C17.9464 19.0642 17.8999 19.0642 17.8999 19.0178C17.8999 18.9714 17.8535 18.9714 17.8535 18.925C17.8535 18.925 17.8535 18.8785 17.8535 18.8321C17.8535 18.7857 17.8535 18.7857 17.8535 18.7392V16.4178C17.8535 16.4643 17.8535 16.4643 17.8535 16.5107C17.8535 16.5571 17.8535 16.5571 17.8535 16.6035C17.8535 16.65 17.8999 16.65 17.8999 16.6964C17.8999 16.7428 17.9464 16.7428 17.9464 16.7893C17.9928 16.8357 18.0392 16.8821 18.0857 16.9285C18.1321 16.9285 18.1321 16.975 18.1785 16.975C18.2249 17.0214 18.3178 17.0678 18.3642 17.1143C18.4107 17.1607 18.5035 17.1607 18.5499 17.2071C18.6428 17.2535 18.6892 17.3 18.7821 17.3C18.8285 17.3 18.8749 17.3464 18.9214 17.3464C19.0142 17.3928 19.0607 17.3928 19.1535 17.4392C19.2464 17.4857 19.3857 17.4857 19.4785 17.5321C19.5249 17.5321 19.5714 17.5785 19.6178 17.5785C19.6642 17.5785 19.7571 17.625 19.8499 17.625C19.9892 17.6714 20.1285 17.6714 20.3142 17.7178C20.4535 17.7178 20.5928 17.7642 20.7321 17.7642C20.9178 17.8107 21.1035 17.8107 21.3357 17.8107C21.4285 17.8107 21.4749 17.8107 21.5678 17.8107C21.7071 17.8107 21.7999 17.8107 21.9392 17.8107C22.0785 17.8107 22.2642 17.8107 22.4035 17.8107C22.5428 17.8107 22.7285 17.8107 22.8678 17.8107C23.0071 17.8107 23.1464 17.8107 23.2392 17.8107C23.3321 17.8107 23.3785 17.8107 23.4714 17.8107C23.6571 17.8107 23.8892 17.7642 24.0749 17.7642C24.2142 17.7642 24.3535 17.7178 24.4928 17.7178C24.6321 17.7178 24.8178 17.6714 24.9571 17.625C25.0499 17.625 25.0964 17.5785 25.1892 17.5785C25.2356 17.5785 25.2821 17.5785 25.3285 17.5321C25.4678 17.4857 25.5606 17.4857 25.6535 17.4392C25.7464 17.4392 25.7928 17.3928 25.8856 17.3464C25.9321 17.3464 25.9785 17.3 26.0249 17.3C26.1178 17.2535 26.2106 17.2535 26.2571 17.2071C26.3035 17.1607 26.3964 17.1607 26.4428 17.1143C26.4892 17.1143 26.4892 17.0678 26.5356 17.0678C26.5821 17.0678 26.5821 17.0214 26.6285 17.0214C26.6749 17.0214 26.6749 16.975 26.7214 16.975C26.7678 16.9285 26.8142 16.8821 26.8606 16.8357C26.9071 16.7893 26.9071 16.7893 26.9071 16.7428C26.9071 16.6964 26.9535 16.6964 26.9535 16.65C26.9535 16.65 26.9535 16.6035 26.9999 16.5571C26.9999 16.5107 26.9999 16.5107 26.9999 16.4643Z" stroke="#FF4ECD" stroke-miterlimit="10"/>
<path d="M26.9999 14.1428V16.4642C26.9999 16.5107 26.9999 16.5107 26.9999 16.5571C26.9999 16.6035 26.9999 16.6035 26.9535 16.65C26.9535 16.6964 26.9071 16.6964 26.9071 16.7428C26.9071 16.7892 26.8606 16.7892 26.8606 16.8357C26.8142 16.8821 26.7678 16.9285 26.7214 16.975C26.7214 16.975 26.6749 17.0214 26.6285 17.0214C26.5821 17.0214 26.5821 17.0678 26.5356 17.0678C26.4892 17.0678 26.4428 17.1142 26.4428 17.1142C26.3964 17.1607 26.3035 17.1607 26.2571 17.2071C26.1642 17.2535 26.0714 17.3 26.0249 17.3C25.9785 17.3 25.9321 17.3464 25.8856 17.3464C25.7928 17.3928 25.7464 17.3928 25.6535 17.4392C25.5606 17.4857 25.4214 17.4857 25.3285 17.5321C25.2821 17.5321 25.2356 17.5785 25.1892 17.5785C25.0964 17.5785 25.0499 17.625 24.9571 17.625C24.8178 17.6714 24.6785 17.6714 24.4928 17.7178C24.3535 17.7178 24.2142 17.7642 24.0749 17.7642C23.8892 17.8107 23.7035 17.8107 23.4714 17.8107C23.3785 17.8107 23.3321 17.8107 23.2392 17.8107C23.0999 17.8107 22.9606 17.8107 22.8678 17.8107C22.7285 17.8107 22.5428 17.8107 22.4035 17.8107C22.2642 17.8107 22.0785 17.8107 21.9392 17.8107C21.7999 17.8107 21.6607 17.8107 21.5678 17.8107C21.4749 17.8107 21.4285 17.8107 21.3357 17.8107C21.1499 17.8107 20.9178 17.7642 20.7321 17.7642C20.5928 17.7642 20.4535 17.7178 20.3142 17.7178C20.1749 17.7178 19.9892 17.6714 19.8499 17.625C19.7571 17.625 19.7107 17.5785 19.6178 17.5785C19.5714 17.5785 19.5249 17.5785 19.4785 17.5321C19.3392 17.4857 19.2464 17.4857 19.1535 17.4392C19.0607 17.4392 19.0142 17.3928 18.9214 17.3464C18.8749 17.3464 18.8285 17.3 18.7821 17.3C18.6892 17.2535 18.5964 17.2535 18.5499 17.2071C18.5035 17.1607 18.4107 17.1607 18.3642 17.1142C18.2714 17.0678 18.2249 17.0214 18.1785 16.975C18.1321 16.975 18.1321 16.9285 18.0857 16.9285C18.0392 16.8821 17.9928 16.8357 17.9464 16.7892C17.9464 16.7428 17.8999 16.7428 17.8999 16.6964C17.8999 16.65 17.8535 16.65 17.8535 16.6035C17.8535 16.6035 17.8535 16.5571 17.8535 16.5107C17.8535 16.4642 17.8535 16.4643 17.8535 16.4178V14.0964C17.8535 14.1428 17.8535 14.1428 17.8535 14.1893C17.8535 14.2357 17.8535 14.2357 17.8535 14.2821C17.8535 14.3285 17.8999 14.3285 17.8999 14.375C17.8999 14.4214 17.9464 14.4214 17.9464 14.4678C17.9928 14.5143 18.0392 14.5607 18.0857 14.6071C18.1321 14.6071 18.1321 14.6535 18.1785 14.6535C18.2249 14.7 18.3178 14.7464 18.3642 14.7928C18.4107 14.8393 18.5035 14.8393 18.5499 14.8857C18.6428 14.9321 18.6892 14.9785 18.7821 14.9785C18.8285 14.9785 18.8749 15.025 18.9214 15.025C19.0142 15.0714 19.0607 15.0714 19.1535 15.1178C19.2464 15.1643 19.3857 15.1643 19.4785 15.2107C19.5249 15.2107 19.5714 15.2571 19.6178 15.2571C19.6642 15.2571 19.7571 15.3035 19.8499 15.3035C19.9892 15.35 20.1285 15.35 20.3142 15.3964C20.4535 15.3964 20.5928 15.4428 20.7321 15.4428C20.9178 15.4893 21.1035 15.4893 21.3357 15.4893C21.4285 15.4893 21.4749 15.4893 21.5678 15.4893C21.7071 15.4893 21.7999 15.4893 21.9392 15.4893C22.0785 15.4893 22.2642 15.4893 22.4035 15.4893C22.5428 15.4893 22.7285 15.4893 22.8678 15.4893C23.0071 15.4893 23.1464 15.4893 23.2392 15.4893C23.3321 15.4893 23.3785 15.4893 23.4714 15.4893C23.6571 15.4893 23.8892 15.4428 24.0749 15.4428C24.2142 15.4428 24.3535 15.3964 24.4928 15.3964C24.6321 15.3964 24.8178 15.35 24.9571 15.3035C25.0499 15.3035 25.0964 15.2571 25.1892 15.2571C25.2356 15.2571 25.2821 15.2571 25.3285 15.2107C25.4678 15.1643 25.5606 15.1643 25.6535 15.1178C25.7464 15.1178 25.7928 15.0714 25.8856 15.025C25.9321 15.025 25.9785 14.9785 26.0249 14.9785C26.1178 14.9321 26.2106 14.9321 26.2571 14.8857C26.3035 14.8393 26.3964 14.8393 26.4428 14.7928C26.4892 14.7928 26.4892 14.7464 26.5356 14.7464C26.5821 14.7464 26.5821 14.7 26.6285 14.7C26.6749 14.7 26.6749 14.6535 26.7214 14.6535C26.7678 14.6071 26.8142 14.5607 26.8606 14.5143C26.9071 14.4678 26.9071 14.4678 26.9071 14.4214C26.9071 14.375 26.9535 14.375 26.9535 14.3285C26.9535 14.3285 26.9535 14.2821 26.9999 14.2357C26.9999 14.1893 26.9999 14.1893 26.9999 14.1428Z" stroke="#FF4ECD" stroke-miterlimit="10"/>
<path d="M16.6466 12.7036C16.368 12.7964 16.043 12.8893 15.6251 12.9821C14.9287 13.1214 14.0001 13.2143 13.0716 13.2143C12.143 13.2143 11.2144 13.1214 10.518 12.9821C9.26442 12.75 8.42871 12.2857 8.42871 11.8214C8.42871 11.0321 10.518 10.4286 13.0716 10.4286V11.3571C13.0716 11.4036 13.0716 11.4036 13.0716 11.45C13.0716 11.4964 13.0716 11.4964 13.0716 11.5428C13.0716 11.5893 13.118 11.5893 13.118 11.6357C13.118 11.6821 13.1644 11.6821 13.1644 11.7286C13.2108 11.775 13.2573 11.8214 13.3037 11.8678C13.3501 11.8678 13.3501 11.9143 13.3966 11.9143C13.443 11.9607 13.5358 12.0071 13.5823 12.0536C13.6287 12.1 13.7216 12.1 13.768 12.1464C13.8608 12.1928 13.9073 12.2393 14.0001 12.2393C14.0466 12.2393 14.093 12.2857 14.1394 12.2857C14.2323 12.3321 14.2787 12.3321 14.3716 12.3786C14.4644 12.425 14.6037 12.425 14.6966 12.4714C14.743 12.4714 14.7894 12.5178 14.8358 12.5178C14.8823 12.5178 14.9751 12.5643 15.068 12.5643C15.2073 12.6107 15.3466 12.6107 15.5323 12.6571C15.6716 12.6571 15.8108 12.7036 15.9501 12.7036C16.2287 12.6571 16.4144 12.7036 16.6466 12.7036Z" stroke="#FF4ECD" stroke-miterlimit="10"/>
<path d="M17.7143 12.75V14.1428C17.7143 14.1893 17.7143 14.1893 17.7143 14.2357C17.7143 14.2821 17.7143 14.2821 17.6679 14.3285C17.6679 14.375 17.6214 14.375 17.6214 14.4214C17.6214 14.4678 17.575 14.4678 17.575 14.5143C17.5286 14.5607 17.4821 14.6071 17.4357 14.6535C17.4357 14.6535 17.3893 14.7 17.3429 14.7C17.2964 14.7 17.2964 14.7464 17.25 14.7464C17.2036 14.7464 17.1571 14.7928 17.1571 14.7928C17.1107 14.8393 17.0179 14.8393 16.9714 14.8857C16.8786 14.9321 16.7857 14.9785 16.7393 14.9785C16.6929 14.9785 16.6464 15.025 16.6 15.025C16.5071 15.0714 16.4607 15.0714 16.3679 15.1178C16.275 15.1643 16.1357 15.1643 16.0429 15.2107C15.9964 15.2107 15.95 15.2571 15.9036 15.2571C15.8107 15.2571 15.7643 15.3035 15.6714 15.3035C15.5321 15.35 15.3929 15.35 15.2071 15.3964C15.0679 15.3964 14.9286 15.4428 14.7893 15.4428C14.6036 15.4893 14.4179 15.4893 14.1857 15.4893C14.0929 15.4893 14.0464 15.4893 13.9536 15.4893C13.8143 15.4893 13.675 15.4893 13.5821 15.4893C13.4429 15.4893 13.2571 15.4893 13.1179 15.4893C12.9786 15.4893 12.7929 15.4893 12.6536 15.4893C12.5143 15.4893 12.375 15.4893 12.2822 15.4893C12.1893 15.4893 12.1429 15.4893 12.05 15.4893C11.8643 15.4893 11.6322 15.4428 11.4464 15.4428C11.3072 15.4428 11.1679 15.3964 11.0286 15.3964C10.8893 15.3964 10.7036 15.35 10.5643 15.3035C10.4714 15.3035 10.425 15.2571 10.3322 15.2571C10.2857 15.2571 10.2393 15.2571 10.1929 15.2107C10.0536 15.1643 9.96073 15.1643 9.86787 15.1178C9.77501 15.1178 9.72858 15.0714 9.63573 15.025C9.5893 15.025 9.54287 14.9785 9.49644 14.9785C9.40358 14.9321 9.31073 14.9321 9.2643 14.8857C9.21787 14.8393 9.12501 14.8393 9.07858 14.7928C8.98573 14.7464 8.9393 14.7 8.89287 14.6535C8.84644 14.6535 8.84644 14.6071 8.80001 14.6071C8.75359 14.5607 8.70716 14.5143 8.66073 14.4678C8.66073 14.4214 8.6143 14.4214 8.6143 14.375C8.6143 14.3285 8.56787 14.3285 8.56787 14.2821C8.56787 14.2821 8.56787 14.2357 8.56787 14.1893C8.56787 14.1428 8.56787 14.1428 8.56787 14.0964V11.775C8.56787 12.2393 9.40358 12.7035 10.6572 12.9357C11.4 13.075 12.2822 13.1678 13.2107 13.1678C14.1393 13.1678 15.0679 13.075 15.7643 12.9357C16.1357 12.8428 16.4607 12.75 16.7857 12.6571C16.8321 12.6571 16.925 12.6571 16.9714 12.6571C17.1107 12.6571 17.2036 12.6571 17.3429 12.6571C17.3893 12.75 17.575 12.75 17.7143 12.75Z" stroke="#FF4ECD" stroke-miterlimit="10"/>
<path d="M27.0001 11.8214C27.0001 12.2857 26.1644 12.75 24.9108 12.9821C24.2144 13.1214 23.2858 13.2143 22.3572 13.2143C21.4287 13.2143 20.5001 13.1214 19.8037 12.9821C19.4322 12.8893 19.1072 12.7964 18.7822 12.7036H18.8287C19.0144 12.7036 19.2465 12.6571 19.4322 12.6571C19.5715 12.6571 19.7108 12.6107 19.8501 12.6107C19.9894 12.6107 20.1751 12.5643 20.3144 12.5178C20.4072 12.5178 20.4537 12.4714 20.5465 12.4714C20.5929 12.4714 20.6394 12.4714 20.6858 12.425C20.8251 12.3786 20.9179 12.3786 21.0108 12.3321C21.1037 12.3321 21.1501 12.2857 21.2429 12.2393C21.2894 12.2393 21.3358 12.1928 21.3822 12.1928C21.4751 12.1464 21.5679 12.1464 21.6144 12.1C21.6608 12.0536 21.7537 12.0536 21.8001 12.0071C21.8465 12.0071 21.8465 11.9607 21.8929 11.9607C21.9394 11.9607 21.9394 11.9143 21.9858 11.9143C22.0322 11.9143 22.0322 11.8678 22.0787 11.8678C22.1251 11.8214 22.1715 11.775 22.2179 11.7286C22.2644 11.6821 22.2644 11.6821 22.2644 11.6357C22.2644 11.5893 22.3108 11.5893 22.3108 11.5428C22.3108 11.5428 22.3108 11.4964 22.3572 11.45C22.3572 11.4036 22.3572 11.4036 22.3572 11.3571V10.4286C24.9108 10.4286 27.0001 11.0321 27.0001 11.8214Z" stroke="#FF4ECD" stroke-miterlimit="10"/>
<path d="M26.9999 11.8214V14.1428C26.9999 14.1893 26.9999 14.1893 26.9999 14.2357C26.9999 14.2821 26.9999 14.2821 26.9535 14.3286C26.9535 14.375 26.9071 14.375 26.9071 14.4214C26.9071 14.4678 26.8606 14.4678 26.8606 14.5143C26.8142 14.5607 26.7678 14.6071 26.7214 14.6535C26.7214 14.6535 26.6749 14.7 26.6285 14.7C26.5821 14.7 26.5821 14.7464 26.5356 14.7464C26.4892 14.7464 26.4428 14.7928 26.4428 14.7928C26.3964 14.8393 26.3035 14.8393 26.2571 14.8857C26.1642 14.9321 26.0714 14.9785 26.0249 14.9785C25.9785 14.9785 25.9321 15.025 25.8856 15.025C25.7928 15.0714 25.7464 15.0714 25.6535 15.1178C25.5606 15.1643 25.4214 15.1643 25.3285 15.2107C25.2821 15.2107 25.2356 15.2571 25.1892 15.2571C25.0964 15.2571 25.0499 15.3035 24.9571 15.3035C24.8178 15.35 24.6785 15.35 24.4928 15.3964C24.3535 15.3964 24.2142 15.4428 24.0749 15.4428C23.8892 15.4893 23.7035 15.4893 23.4714 15.4893C23.3785 15.4893 23.3321 15.4893 23.2392 15.4893C23.0999 15.4893 22.9606 15.4893 22.8678 15.4893C22.7285 15.4893 22.5428 15.4893 22.4035 15.4893C22.2642 15.4893 22.0785 15.4893 21.9392 15.4893C21.7999 15.4893 21.6607 15.4893 21.5678 15.4893C21.4749 15.4893 21.4285 15.4893 21.3357 15.4893C21.1499 15.4893 20.9178 15.4428 20.7321 15.4428C20.5928 15.4428 20.4535 15.3964 20.3142 15.3964C20.1749 15.3964 19.9892 15.35 19.8499 15.3035C19.7571 15.3035 19.7107 15.2571 19.6178 15.2571C19.5714 15.2571 19.5249 15.2571 19.4785 15.2107C19.3392 15.1643 19.2464 15.1643 19.1535 15.1178C19.0607 15.1178 19.0142 15.0714 18.9214 15.025C18.8749 15.025 18.8285 14.9785 18.7821 14.9785C18.6892 14.9321 18.5964 14.9321 18.5499 14.8857C18.5035 14.8393 18.4107 14.8393 18.3642 14.7928C18.2714 14.7464 18.2249 14.7 18.1785 14.6535C18.1321 14.6535 18.1321 14.6071 18.0857 14.6071C18.0392 14.5607 17.9928 14.5143 17.9464 14.4678C17.9464 14.4214 17.8999 14.4214 17.8999 14.375C17.8999 14.3285 17.8535 14.3285 17.8535 14.2821C17.8535 14.2821 17.8535 14.2357 17.8535 14.1893C17.8535 14.1428 17.8535 14.1428 17.8535 14.0964V12.7036C17.9928 12.7036 18.1785 12.7036 18.3178 12.7036C18.4571 12.7036 18.5964 12.7036 18.6892 12.7036C18.7357 12.7036 18.8285 12.7036 18.8749 12.7036C19.1535 12.7964 19.5249 12.8893 19.8964 12.9821C20.6392 13.1214 21.5214 13.2143 22.4499 13.2143C23.3785 13.2143 24.3071 13.1214 25.0035 12.9821C26.1642 12.75 26.9999 12.2857 26.9999 11.8214Z" stroke="#FF4ECD" stroke-miterlimit="10"/>
<path d="M22.3574 9.0357V11.3571C22.3574 11.4036 22.3574 11.4036 22.3574 11.45C22.3574 11.4964 22.3574 11.4964 22.3109 11.5428C22.3109 11.5893 22.2645 11.5893 22.2645 11.6357C22.2645 11.6821 22.2181 11.6821 22.2181 11.7286C22.1716 11.775 22.1252 11.8214 22.0788 11.8678C22.0788 11.8678 22.0324 11.9143 21.9859 11.9143C21.9395 11.9143 21.9395 11.9607 21.8931 11.9607C21.8466 11.9607 21.8002 12.0071 21.8002 12.0071C21.7538 12.0536 21.6609 12.0536 21.6145 12.1C21.5216 12.1464 21.4288 12.1928 21.3824 12.1928C21.3359 12.1928 21.2895 12.2393 21.2431 12.2393C21.1502 12.2857 21.1038 12.2857 21.0109 12.3321C20.9181 12.3786 20.7788 12.3786 20.6859 12.425C20.6395 12.425 20.5931 12.4714 20.5466 12.4714C20.4538 12.4714 20.4074 12.5178 20.3145 12.5178C20.1752 12.5643 20.0359 12.5643 19.8502 12.6107C19.7109 12.6107 19.5716 12.6571 19.4324 12.6571C19.2466 12.7036 19.0609 12.7036 18.8288 12.7036H18.7824C18.7359 12.7036 18.6431 12.7036 18.5966 12.7036C18.4574 12.7036 18.3181 12.7036 18.2252 12.7036C18.0859 12.7036 17.9002 12.7036 17.7609 12.7036C17.6216 12.7036 17.4359 12.7036 17.2966 12.7036C17.1574 12.7036 17.0181 12.7036 16.9252 12.7036C16.8324 12.7036 16.7859 12.7036 16.7395 12.7036H16.6931C16.5074 12.7036 16.2752 12.6571 16.0895 12.6571C15.9502 12.6571 15.8109 12.6107 15.6716 12.6107C15.5324 12.6107 15.3466 12.5643 15.2074 12.5178C15.1145 12.5178 15.0681 12.4714 14.9752 12.4714C14.9288 12.4714 14.8824 12.4714 14.8359 12.425C14.6966 12.3786 14.6038 12.3786 14.5109 12.3321C14.4181 12.3321 14.3717 12.2857 14.2788 12.2393C14.2324 12.2393 14.1859 12.1928 14.1395 12.1928C14.0467 12.1464 13.9538 12.1464 13.9074 12.1C13.8609 12.0536 13.7681 12.0536 13.7217 12.0071C13.6288 11.9607 13.5824 11.9143 13.5359 11.8678C13.4895 11.8678 13.4895 11.8214 13.4431 11.8214C13.3967 11.775 13.3502 11.7286 13.3038 11.6821C13.3038 11.6357 13.2574 11.6357 13.2574 11.5893C13.2574 11.5428 13.2109 11.5428 13.2109 11.4964C13.2109 11.4964 13.2109 11.45 13.2109 11.4036C13.2109 11.3571 13.2109 11.3571 13.2109 11.3107V8.98927C13.2109 9.0357 13.2109 9.0357 13.2109 9.08213C13.2109 9.12856 13.2109 9.12856 13.2109 9.17499C13.2109 9.22142 13.2574 9.22142 13.2574 9.26784C13.2574 9.31427 13.3038 9.31427 13.3038 9.3607C13.3502 9.40713 13.3967 9.45356 13.4431 9.49999C13.4895 9.49999 13.4895 9.54642 13.5359 9.54642C13.5824 9.59284 13.6752 9.63927 13.7217 9.6857C13.7681 9.73213 13.8609 9.73213 13.9074 9.77856C14.0002 9.82499 14.0467 9.87141 14.1395 9.87141C14.1859 9.87141 14.2324 9.91784 14.2788 9.91784C14.3717 9.96427 14.4181 9.96427 14.5109 10.0107C14.6038 10.0571 14.7431 10.0571 14.8359 10.1036C14.8824 10.1036 14.9288 10.15 14.9752 10.15C15.0216 10.15 15.1145 10.1964 15.2074 10.1964C15.3466 10.2428 15.4859 10.2428 15.6716 10.2893C15.8109 10.2893 15.9502 10.3357 16.0895 10.3357C16.2752 10.3821 16.4609 10.3821 16.6931 10.3821C16.7859 10.3821 16.8324 10.3821 16.9252 10.3821C17.0645 10.3821 17.1574 10.3821 17.2966 10.3821C17.4359 10.3821 17.6216 10.3821 17.7609 10.3821C17.9002 10.3821 18.0859 10.3821 18.2252 10.3821C18.3645 10.3821 18.5038 10.3821 18.5966 10.3821C18.6895 10.3821 18.7359 10.3821 18.8288 10.3821C19.0145 10.3821 19.2466 10.3357 19.4324 10.3357C19.5716 10.3357 19.7109 10.2893 19.8502 10.2893C19.9895 10.2893 20.1752 10.2428 20.3145 10.1964C20.4074 10.1964 20.4538 10.15 20.5466 10.15C20.5931 10.15 20.6395 10.15 20.6859 10.1036C20.8252 10.0571 20.9181 10.0571 21.0109 10.0107C21.1038 10.0107 21.1502 9.96427 21.2431 9.91784C21.2895 9.91784 21.3359 9.87141 21.3824 9.87141C21.4752 9.82499 21.5681 9.82499 21.6145 9.77856C21.6609 9.73213 21.7538 9.73213 21.8002 9.6857C21.8466 9.6857 21.8466 9.63927 21.8931 9.63927C21.9395 9.63927 21.9395 9.59284 21.9859 9.59284C22.0324 9.59284 22.0324 9.54642 22.0788 9.54642C22.1252 9.49999 22.1716 9.45356 22.2181 9.40713C22.2645 9.3607 22.2645 9.3607 22.2645 9.31427C22.2645 9.26784 22.3109 9.26784 22.3109 9.22142C22.3109 9.22142 22.3109 9.17499 22.3574 9.12856C22.3574 9.08213 22.3574 9.08213 22.3574 9.0357Z" stroke="#FF4ECD" stroke-miterlimit="10"/>
<path d="M22.3574 6.71428V9.0357C22.3574 9.08213 22.3574 9.08213 22.3574 9.12856C22.3574 9.17499 22.3574 9.17499 22.3109 9.22141C22.3109 9.26784 22.2645 9.26784 22.2645 9.31427C22.2645 9.3607 22.2181 9.3607 22.2181 9.40713C22.1716 9.45356 22.1252 9.49999 22.0788 9.54641C22.0788 9.54641 22.0324 9.59284 21.9859 9.59284C21.9395 9.59284 21.9395 9.63927 21.8931 9.63927C21.8466 9.63927 21.8002 9.6857 21.8002 9.6857C21.7538 9.73213 21.6609 9.73213 21.6145 9.77856C21.5216 9.82498 21.4288 9.87141 21.3824 9.87141C21.3359 9.87141 21.2895 9.91784 21.2431 9.91784C21.1502 9.96427 21.1038 9.96427 21.0109 10.0107C20.9181 10.0571 20.7788 10.0571 20.6859 10.1036C20.6395 10.1036 20.5931 10.15 20.5466 10.15C20.4538 10.15 20.4074 10.1964 20.3145 10.1964C20.1752 10.2428 20.0359 10.2428 19.8502 10.2893C19.7109 10.2893 19.5716 10.3357 19.4324 10.3357C19.2466 10.3821 19.0609 10.3821 18.8288 10.3821C18.7359 10.3821 18.6895 10.3821 18.5966 10.3821C18.4574 10.3821 18.3181 10.3821 18.2252 10.3821C18.0859 10.3821 17.9002 10.3821 17.7609 10.3821C17.6216 10.3821 17.4359 10.3821 17.2966 10.3821C17.1574 10.3821 17.0181 10.3821 16.9252 10.3821C16.8324 10.3821 16.7859 10.3821 16.6931 10.3821C16.5074 10.3821 16.2752 10.3357 16.0895 10.3357C15.9502 10.3357 15.8109 10.2893 15.6716 10.2893C15.5324 10.2893 15.3466 10.2428 15.2074 10.1964C15.1145 10.1964 15.0681 10.15 14.9752 10.15C14.9288 10.15 14.8824 10.15 14.8359 10.1036C14.6966 10.0571 14.6038 10.0571 14.5109 10.0107C14.4181 10.0107 14.3717 9.96427 14.2788 9.91784C14.2324 9.91784 14.1859 9.87141 14.1395 9.87141C14.0467 9.82498 13.9538 9.82498 13.9074 9.77856C13.8609 9.73213 13.7681 9.73213 13.7217 9.6857C13.6288 9.63927 13.5824 9.59284 13.5359 9.54641C13.4895 9.54641 13.4895 9.49998 13.4431 9.49998C13.3967 9.45356 13.3502 9.40713 13.3038 9.3607C13.3038 9.31427 13.2574 9.31427 13.2574 9.26784C13.2574 9.22141 13.2109 9.22141 13.2109 9.17499C13.2109 9.17499 13.2109 9.12856 13.2109 9.08213C13.2109 9.0357 13.2109 9.0357 13.2109 8.98927V6.66785C13.2109 6.71428 13.2109 6.71428 13.2109 6.7607C13.2109 6.80713 13.2109 6.80713 13.2109 6.85356C13.2109 6.89999 13.2574 6.89999 13.2574 6.94642C13.2574 6.99285 13.3038 6.99285 13.3038 7.03928C13.3502 7.0857 13.3967 7.13213 13.4431 7.17856C13.4895 7.17856 13.4895 7.22499 13.5359 7.22499C13.5824 7.27142 13.6752 7.31785 13.7217 7.36427C13.7681 7.4107 13.8609 7.4107 13.9074 7.45713C14.0002 7.50356 14.0467 7.54999 14.1395 7.54999C14.1859 7.54999 14.2324 7.59642 14.2788 7.59642C14.3717 7.64285 14.4181 7.64285 14.5109 7.68927C14.6038 7.7357 14.7431 7.7357 14.8359 7.78213C14.8824 7.78213 14.9288 7.82856 14.9752 7.82856C15.0216 7.82856 15.1145 7.87499 15.2074 7.87499C15.3466 7.92142 15.4859 7.92142 15.6716 7.96785C15.8109 7.96785 15.9502 8.01427 16.0895 8.01427C16.2752 8.0607 16.4609 8.0607 16.6931 8.0607C16.7859 8.0607 16.8324 8.0607 16.9252 8.0607C17.0645 8.0607 17.1574 8.0607 17.2966 8.0607C17.4359 8.0607 17.6216 8.0607 17.7609 8.0607C17.9002 8.0607 18.0859 8.0607 18.2252 8.0607C18.3645 8.0607 18.5038 8.0607 18.5966 8.0607C18.6895 8.0607 18.7359 8.0607 18.8288 8.0607C19.0145 8.0607 19.2466 8.01427 19.4324 8.01427C19.5716 8.01427 19.7109 7.96785 19.8502 7.96785C19.9895 7.96785 20.1752 7.92142 20.3145 7.87499C20.4074 7.87499 20.4538 7.82856 20.5466 7.82856C20.5931 7.82856 20.6395 7.82856 20.6859 7.78213C20.8252 7.7357 20.9181 7.7357 21.0109 7.68927C21.1038 7.68927 21.1502 7.64285 21.2431 7.59642C21.2895 7.59642 21.3359 7.54999 21.3824 7.54999C21.4752 7.50356 21.5681 7.50356 21.6145 7.45713C21.6609 7.4107 21.7538 7.4107 21.8002 7.36427C21.8466 7.36427 21.8466 7.31785 21.8931 7.31785C21.9395 7.31785 21.9395 7.27142 21.9859 7.27142C22.0324 7.27142 22.0324 7.22499 22.0788 7.22499C22.1252 7.17856 22.1716 7.13213 22.2181 7.0857C22.2645 7.03927 22.2645 7.03927 22.2645 6.99285C22.2645 6.94642 22.3109 6.94642 22.3109 6.89999C22.3109 6.89999 22.3109 6.85356 22.3574 6.80713C22.3574 6.7607 22.3574 6.7607 22.3574 6.71428Z" stroke="#FF4ECD" stroke-miterlimit="10"/>
<path d="M22.357 4.39285C22.357 4.85714 21.5213 5.32142 20.2677 5.55357C19.5713 5.69285 18.6427 5.78571 17.7141 5.78571C16.7856 5.78571 15.857 5.69285 15.1606 5.55357C13.907 5.32142 13.0713 4.85714 13.0713 4.39285C13.0713 3.60357 15.1606 3 17.7141 3C20.2677 3 22.357 3.60357 22.357 4.39285Z" stroke="#FF4ECD" stroke-miterlimit="10"/>
<path d="M22.3574 4.39285V6.71427C22.3574 6.7607 22.3574 6.7607 22.3574 6.80713C22.3574 6.85356 22.3574 6.85356 22.3109 6.89999C22.3109 6.94642 22.2645 6.94642 22.2645 6.99284C22.2645 7.03927 22.2181 7.03927 22.2181 7.0857C22.1716 7.13213 22.1252 7.17856 22.0788 7.22499C22.0788 7.22499 22.0324 7.27142 21.9859 7.27142C21.9395 7.27142 21.9395 7.31784 21.8931 7.31784C21.8466 7.31784 21.8002 7.36427 21.8002 7.36427C21.7538 7.4107 21.6609 7.4107 21.6145 7.45713C21.5216 7.50356 21.4288 7.54999 21.3824 7.54999C21.3359 7.54999 21.2895 7.59641 21.2431 7.59641C21.1502 7.64284 21.1038 7.64284 21.0109 7.68927C20.9181 7.7357 20.7788 7.7357 20.6859 7.78213C20.6395 7.78213 20.5931 7.82856 20.5466 7.82856C20.4538 7.82856 20.4074 7.87499 20.3145 7.87499C20.1752 7.92141 20.0359 7.92141 19.8502 7.96784C19.7109 7.96784 19.5716 8.01427 19.4324 8.01427C19.2466 8.0607 19.0609 8.0607 18.8288 8.0607C18.7359 8.0607 18.6895 8.0607 18.5966 8.0607C18.4574 8.0607 18.3181 8.0607 18.2252 8.0607C18.0859 8.0607 17.9002 8.0607 17.7609 8.0607C17.6216 8.0607 17.4359 8.0607 17.2966 8.0607C17.1574 8.0607 17.0181 8.0607 16.9252 8.0607C16.8324 8.0607 16.7859 8.0607 16.6931 8.0607C16.5074 8.0607 16.2752 8.01427 16.0895 8.01427C15.9502 8.01427 15.8109 7.96784 15.6716 7.96784C15.5324 7.96784 15.3466 7.92141 15.2074 7.87499C15.1145 7.87499 15.0681 7.82856 14.9752 7.82856C14.9288 7.82856 14.8824 7.82856 14.8359 7.78213C14.6966 7.7357 14.6038 7.7357 14.5109 7.68927C14.4181 7.68927 14.3717 7.64284 14.2788 7.59641C14.2324 7.59641 14.1859 7.54999 14.1395 7.54999C14.0467 7.50356 13.9538 7.50356 13.9074 7.45713C13.8609 7.4107 13.7681 7.4107 13.7217 7.36427C13.6288 7.31784 13.5824 7.27142 13.5359 7.22499C13.4895 7.22499 13.4895 7.17856 13.4431 7.17856C13.3967 7.13213 13.3502 7.0857 13.3038 7.03927C13.3038 6.99284 13.2574 6.99284 13.2574 6.94642C13.2574 6.89999 13.2109 6.89999 13.2109 6.85356C13.2109 6.85356 13.2109 6.80713 13.2109 6.7607C13.2109 6.71427 13.2109 6.71427 13.2109 6.66784V4.34642C13.2109 4.81071 14.0467 5.27499 15.3002 5.50713C16.0431 5.64642 16.9252 5.73928 17.8538 5.73928C18.7824 5.73928 19.7109 5.64642 20.4074 5.50713C21.5216 5.32142 22.3574 4.85713 22.3574 4.39285Z" stroke="#FF4ECD" stroke-miterlimit="10"/>
</svg>
