<svg width="33" height="36" viewBox="0 0 33 36" fill="none" xmlns="http://www.w3.org/2000/svg">
<path d="M31.5806 18.7742C31.5806 22.1811 30.6546 25.5116 28.9195 28.3444C27.1844 31.1771 24.7183 33.385 21.833 34.6888C18.9477 35.9926 15.7728 36.3337 12.7098 35.669C9.64676 35.0044 6.83319 33.3638 4.62488 30.9547C2.41656 28.5456 0.91268 25.4763 0.303407 22.1348C-0.305866 18.7933 0.00683462 15.3298 1.20197 12.1822C2.3971 9.03457 4.42098 6.34427 7.01769 4.45147C9.61439 2.55868 12.6673 1.5484 15.7903 1.5484L15.7903 18.7742H31.5806Z" fill="#D9D9D9"/>
<path d="M33.0001 17.2258C33.0001 14.9637 32.5916 12.7237 31.7981 10.6338C31.0046 8.54384 29.8415 6.64489 28.3752 5.04532C26.9089 3.44576 25.1682 2.17691 23.2525 1.31124C21.3367 0.445558 19.2834 -9.88806e-08 17.2098 0L17.2098 17.2258H33.0001Z" fill="#D9D9D9"/>
</svg>
