<svg width="33" height="33" viewBox="0 0 33 33" fill="none" xmlns="http://www.w3.org/2000/svg">
<circle cx="16.5" cy="16.5" r="16.5" fill="#290F43"/>
<path d="M11.2656 10.9186C11.2656 10.7907 11.3744 10.686 11.5075 10.686H13.1551C13.2458 10.686 13.3305 10.7355 13.3698 10.814L15.9305 15.7209H16.0302L18.5909 10.814C18.611 10.7757 18.6416 10.7435 18.6795 10.7209C18.7174 10.6984 18.761 10.6863 18.8056 10.686H20.4895C20.5288 10.686 20.5681 10.6948 20.6044 10.7151C20.7223 10.7762 20.7646 10.9186 20.7011 11.0291L17.56 16.5988H19.2832C19.4163 16.5988 19.5251 16.7035 19.5251 16.8314V17.6192C19.5251 17.7471 19.4163 17.8517 19.2832 17.8517H16.9856V18.9855H19.2832C19.4163 18.9855 19.5251 19.0901 19.5251 19.218V20.0058C19.5251 20.1337 19.4163 20.2384 19.2832 20.2384H16.9856V22.0814C16.9856 22.2093 16.8767 22.314 16.7437 22.314H15.2351C15.1021 22.314 14.9933 22.2093 14.9933 22.0814V20.2355H12.6865C12.5535 20.2355 12.4447 20.1308 12.4447 20.0029V19.2151C12.4447 19.0872 12.5535 18.9826 12.6865 18.9826H14.9933V17.8488H12.6865C12.5535 17.8488 12.4447 17.7442 12.4447 17.6163V16.8285C12.4447 16.7006 12.5535 16.5959 12.6865 16.5959H14.4279L11.2928 11.0262C11.2777 10.9942 11.2656 10.9564 11.2656 10.9186ZM26.7053 16.2733C26.6485 13.6239 25.5271 11.0985 23.5762 9.22674C22.5937 8.28198 21.4509 7.53779 20.1781 7.02035C18.86 6.48547 17.4602 6.21221 16.0181 6.21221C14.573 6.21221 13.1733 6.48256 11.8582 7.02035C10.5854 7.53779 9.4426 8.28198 8.46004 9.22674C8.15772 9.51744 7.87656 9.82267 7.61656 10.1395L9.12818 11.2762C9.16419 11.3029 9.19161 11.339 9.20728 11.3801C9.22295 11.4212 9.22623 11.4657 9.21676 11.5085C9.20728 11.5513 9.18543 11.5907 9.15372 11.6221C9.122 11.6535 9.08171 11.6757 9.03748 11.686L4.29704 12.7994C4.14588 12.8343 3.99774 12.7238 3.99774 12.5756L3.97356 7.88081C3.97356 7.68605 4.20635 7.57558 4.36355 7.69767L5.80866 8.78488C8.17888 5.86919 11.8703 4 16.0151 4C23.1046 4 28.8699 9.46802 28.9999 16.2616C29.0007 16.2927 28.9951 16.3235 28.9833 16.3524C28.9715 16.3813 28.9538 16.4076 28.9313 16.4298C28.9087 16.4521 28.8818 16.4697 28.852 16.4818C28.8223 16.4938 28.7903 16.5 28.7581 16.5H26.9441C26.8141 16.5 26.7083 16.3983 26.7053 16.2733ZM3.24193 16.5H5.05588C5.18588 16.5 5.29471 16.6017 5.29774 16.7267C5.35452 19.3761 6.47593 21.9015 8.42679 23.7733C9.40032 24.7133 10.5544 25.4626 11.8249 25.9797C13.143 26.5145 14.5428 26.7878 15.9849 26.7878C17.427 26.7878 18.8298 26.5174 20.1449 25.9797C21.4154 25.4626 22.5695 24.7133 23.543 23.7733C23.8453 23.4826 24.1265 23.1773 24.3865 22.8605L22.8779 21.7238C22.8419 21.6971 22.8144 21.661 22.7988 21.6199C22.7831 21.5788 22.7798 21.5343 22.7893 21.4915C22.7988 21.4487 22.8206 21.4093 22.8523 21.3779C22.884 21.3465 22.9243 21.3243 22.9686 21.314L27.709 20.2006C27.8602 20.1657 28.0083 20.2762 28.0083 20.4244L28.0325 25.125C28.0325 25.3198 27.7997 25.4302 27.6425 25.3081L26.1974 24.2209C23.8211 27.1308 20.1297 29 15.9849 29C8.89539 29 3.13007 23.532 3.00008 16.7384C2.99927 16.7073 3.00493 16.6765 3.01672 16.6476C3.02851 16.6187 3.0462 16.5924 3.06874 16.5702C3.09128 16.5479 3.11821 16.5303 3.14796 16.5182C3.1777 16.5062 3.20966 16.5 3.24193 16.5Z" fill="#FF4ECD"/>
</svg>
